:SAMPLES-PER-SECOND 30
:FRAME-RANGE 1-2045
:FULLY-SPECIFIED
:DEGREES
256
root  -6.21808 36.4537 79.0333 0.483551 63.8805 3.51758
RightUpLeg  -30.0103 10.9874 -5.43073
RightLeg  26.6339 6.38261 3.25026
RightFoot  2.89972 -1.51114 12.2137
RightToes  -5.28216e-011 1.2921e-014 -6.02303e-014
Spine  5.7332 -3.76038 -3.45394
Spine1  2.22145 -5.60387 8.0997
HEad  6.37833 62.7148 -23.5623
LeftShoulder1  0.15112 -7.12359 7.73101
LeftArm  -21.2227 -65.1122 -37.0017
LeftForeArm  -10.5676 -32.1865 -7.65964
LeftHand  0.383828 -1.08567 -6.80508
RightShoulder  1.24404 2.34296 15.2423
RightArm  -29.1807 11.6344 40.464
RightForeArm  13.3585 68.7231 29.6736
RightHand  -0.0163758 -5.67788 -4.21723
LeftUpLeg  -9.09127 12.718 -7.77368
LeftLeg  54.5979 -0.870687 -0.809745
LeftFoot  -11.2948 0.070465 -7.04019
LeftToes  9.43379e-011 5.24309e-011 -4.66411e-011
257
root  -4.87309 36.2731 79.2721 -1.59094 64.0919 2.03751
RightUpLeg  -29.7036 7.93314 -4.19156
RightLeg  32.4682 8.43232 5.50878
RightFoot  -0.517185 -0.81518 8.55143
RightToes  -5.28216e-011 1.2921e-014 -6.02303e-014
Spine  5.7622 -3.10987 -0.957024
Spine1  2.37914 -4.77038 7.84619
HEad  7.21559 62.8612 -22.8333
LeftShoulder1  -0.00608578 -6.69319 9.46281
LeftArm  -28.863 -65.1491 -29.8921
LeftForeArm  -10.1344 -33.2976 -7.9414
LeftHand  0.552109 -2.96626 -7.45119
RightShoulder  1.39068 2.93471 15.5537
RightArm  -29.9844 14.9063 42.2877
RightForeArm  12.9632 67.8833 28.199
RightHand  -0.026037 -5.34809 -5.45903
LeftUpLeg  -12.4753 14.7589 -3.88688
LeftLeg  64.1725 -4.0968 -8.52491
LeftFoot  -1.39169 0.96466 -10.9622
LeftToes  9.43379e-011 5.24309e-011 -4.66411e-011
258
root  -3.6071 36.1473 79.4756 -3.36749 64.9602 1.01611
RightUpLeg  -28.4055 6.58473 -3.88064
RightLeg  36.4517 8.42295 6.37706
RightFoot  -4.19858 -0.528016 7.98797
RightToes  -5.28216e-011 1.2921e-014 -6.02303e-014
Spine  5.72821 -2.58149 1.01212
Spine1  2.83215 -4.09031 7.81069
HEad  8.32986 62.563 -21.6446
LeftShoulder1  -0.118727 -6.49437 10.7826
LeftArm  -36.2151 -64.5583 -23.3515
LeftForeArm  -10.3484 -34.2773 -8.22815
LeftHand  0.406153 -1.27547 -6.98014
RightShoulder  1.47749 3.28562 15.7093
RightArm  -31.0681 18.7514 44.3629
RightForeArm  11.7361 66.6251 26.3307
RightHand  -0.0498317 -4.85606 -6.24805
LeftUpLeg  -15.2863 15.2911 -0.539738
LeftLeg  70.5558 -3.65903 -10.6099
LeftFoot  0.382069 1.22998 -11.9705
LeftToes  9.43379e-011 5.24309e-011 -4.66411e-011
259
root  -2.37243 36.2231 79.7011 -2.51236 66.2967 2.87537
RightUpLeg  -26.1691 5.25764 -5.02801
RightLeg  38.8221 8.35324 6.88489
RightFoot  -7.56755 -0.28555 7.09434
RightToes  -5.28216e-011 1.2921e-014 -6.02303e-014
Spine  5.5214 -2.0386 1.36833
Spine1  3.13398 -3.42684 7.2286
HEad  9.63777 62.0169 -19.9515
LeftShoulder1  -0.214519 -6.06355 12.0189
LeftArm  -42.3452 -63.3191 -18.0282
LeftForeArm  -9.84393 -35.8738 -8.66681
LeftHand  0.446338 -1.85741 -7.00633
RightShoulder  1.57943 3.68835 15.9047
RightArm  -32.2893 22.5134 46.299
RightForeArm  11.6463 65.6578 24.9429
RightHand  -0.0655864 -4.58501 -6.64044
LeftUpLeg  -17.6476 14.9169 1.05013
LeftLeg  72.6152 -1.18061 -3.26587
LeftFoot  -2.36242 0.80357 -10.0362
LeftToes  9.43379e-011 5.24309e-011 -4.66411e-011
260
root  -1.13914 36.4086 79.8951 -0.551056 68.512 5.52548
RightUpLeg  -23.5441 4.06418 -6.6247
RightLeg  39.9879 7.76298 6.65644
RightFoot  -10.3838 -0.119774 5.88306
RightToes  -5.28216e-011 1.2921e-014 -6.02303e-014
Spine  4.88692 -1.64169 1.5987
Spine1  3.46092 -2.94281 6.61608
HEad  11.304 61.0404 -18.3021
LeftShoulder1  -0.243348 -5.72061 12.4848
LeftArm  -47.278 -61.9021 -13.3485
LeftForeArm  -9.57776 -37.2395 -9.0677
LeftHand  0.387469 -1.19616 -6.74311
RightShoulder  1.64748 4.03849 15.7496
RightArm  -33.4824 26.0505 47.8785
RightForeArm  12.2364 64.7744 23.7015
RightHand  -0.0687056 -4.5452 -6.79835
LeftUpLeg  -19.7254 13.6732 2.09977
LeftLeg  70.6277 0.776739 3.38273
LeftFoot  -4.37605 0.409705 -6.29762
LeftToes  9.43379e-011 5.24309e-011 -4.66411e-011
261
root  0.0615314 36.667 80.0462 1.95728 71.4459 8.49573
RightUpLeg  -20.2905 2.13669 -8.14931
RightLeg  39.8563 7.26568 6.18918
RightFoot  -12.6634 -0.0169937 5.97494
RightToes  -5.28216e-011 1.2921e-014 -6.02303e-014
Spine  4.26171 -1.39253 1.92157
Spine1  3.42914 -2.60636 5.99981
HEad  13.2493 59.9421 -16.7067
LeftShoulder1  -0.286655 -4.90784 13.3946
LeftArm  -51.1661 -61.0682 -10.3573
LeftForeArm  -9.76434 -36.9419 -8.98594
LeftHand  0.454619 -2.3172 -6.67111
RightShoulder  1.69718 4.4162 15.2603
RightArm  -34.1077 29.1106 48.8019
RightForeArm  12.5994 64.2812 23.0481
RightHand  -0.0841637 -4.41054 -7.86661
LeftUpLeg  -21.054 12.0575 3.06723
LeftLeg  64.908 2.59898 6.75074
LeftFoot  -6.30943 0.240312 -4.60684
LeftToes  9.43379e-011 5.24309e-011 -4.66411e-011
262
root  1.2226 36.9779 80.1614 5.74548 74.3521 12.1708
RightUpLeg  -17.0699 0.378516 -9.56242
RightLeg  38.55 6.69145 5.42445
RightFoot  -14.3896 0.0725683 6.39277
RightToes  -5.28216e-011 1.2921e-014 -6.02303e-014
Spine  3.27415 -0.975427 2.34598
Spine1  3.20061 -2.11505 5.41521
HEad  15.6336 58.943 -14.9488
LeftShoulder1  -0.286365 -5.12995 13.2854
LeftArm  -54.6259 -58.6166 -5.79623
LeftForeArm  -10.5576 -37.8646 -9.31748
LeftHand  0.476314 -2.44687 -6.87027
RightShoulder  1.69085 4.67768 14.3859
RightArm  -34.9088 32.5375 49.4206
RightForeArm  12.829 63.7655 22.414
RightHand  -0.0788927 -4.49178 -7.84992
LeftUpLeg  -21.9139 10.9143 3.50256
LeftLeg  56.0285 5.26307 8.8625
LeftFoot  -7.0825 0.163477 -3.25331
LeftToes  9.43379e-011 5.24309e-011 -4.66411e-011
263
root  2.37082 37.2762 80.2448 10.8757 77.0873 16.9934
RightUpLeg  -13.8589 -1.60478 -10.8724
RightLeg  36.8512 6.31837 4.80502
RightFoot  -15.7578 0.150551 6.67142
RightToes  -5.28216e-011 1.2921e-014 -6.02303e-014
Spine  1.95164 -0.435872 2.91047
Spine1  3.47144 -1.46283 4.47828
HEad  17.0583 58.0348 -13.6466
LeftShoulder1  -0.311827 -4.86013 13.771
LeftArm  -57.8553 -56.1813 -1.98397
LeftForeArm  -11.6351 -38.5902 -9.60949
LeftHand  0.452634 -1.95111 -7.00742
RightShoulder  1.67599 4.93364 13.4652
RightArm  -35.9117 36.5006 49.4782
RightForeArm  12.7667 63.1177 21.6996
RightHand  -0.13791 -3.75446 -8.7702
LeftUpLeg  -21.9267 10.5781 3.51329
LeftLeg  45.1944 8.61278 9.58033
LeftFoot  -4.49721 0.263072 -3.94754
LeftToes  9.43379e-011 5.24309e-011 -4.66411e-011
264
root  3.54211 37.4656 80.2968 17.8924 79.8942 23.6321
RightUpLeg  -10.7036 -3.66122 -11.9324
RightLeg  35.3521 5.75182 4.12011
RightFoot  -17.1538 0.279472 7.78882
RightToes  -5.28216e-011 1.2921e-014 -6.02303e-014
Spine  0.517643 0.156509 3.57475
Spine1  3.84669 -0.75067 3.33604
HEad  18.0938 56.918 -12.1221
LeftShoulder1  -0.329788 -4.37998 14.3117
LeftArm  -60.7906 -53.7896 1.52466
LeftForeArm  -12.6451 -38.5931 -9.66536
LeftHand  0.50304 -2.39246 -7.32134
RightShoulder  1.64811 5.26634 12.2356
RightArm  -37.1164 40.6121 49.3333
RightForeArm  12.6705 62.3603 20.9158
RightHand  -0.145963 -3.7181 -9.16699
LeftUpLeg  -21.6821 11.6934 3.05602
LeftLeg  34.8462 11.2864 8.68925
LeftFoot  -2.55121 0.398588 -4.98572
LeftToes  9.43379e-011 5.24309e-011 -4.66411e-011
265
root  4.72082 37.5714 80.2727 31.7198 83.0264 37.3844
RightUpLeg  -7.14369 -5.74805 -13.0866
RightLeg  34.17 4.82648 3.27043
RightFoot  -18.7293 0.369244 7.67884
RightToes  -5.28216e-011 1.2921e-014 -6.02303e-014
Spine  -0.564328 0.588876 4.03126
Spine1  4.18447 -0.235239 2.49458
HEad  18.7097 55.8536 -10.7716
LeftShoulder1  -0.354638 -4.02124 14.9402
LeftArm  -63.6999 -51.1703 4.64772
LeftForeArm  -13.4307 -38.7231 -9.75019
LeftHand  0.534385 -2.78808 -7.37761
RightShoulder  1.62163 5.69131 10.9046
RightArm  -38.6765 44.9676 48.6766
RightForeArm  12.5038 61.3417 19.9395
RightHand  -0.0682715 -4.73995 -8.91904
LeftUpLeg  -21.3649 13.5655 1.51988
LeftLeg  27.064 14.7935 8.39729
LeftFoot  -0.694639 0.508329 -5.40953
LeftToes  9.43379e-011 5.24309e-011 -4.66411e-011
266
root  5.92089 37.5909 80.1614 63.697 85.3578 69.361
RightUpLeg  -3.39096 -7.41566 -14.0186
RightLeg  32.9554 3.19357 1.98475
RightFoot  -20.1936 0.623628 9.80896
RightToes  -5.28216e-011 1.2921e-014 -6.02303e-014
Spine  -1.17132 1.09299 4.77873
Spine1  4.04286 0.417893 1.45911
HEad  19.091 54.9651 -9.73263
LeftShoulder1  -0.357442 -3.90255 15.0758
LeftArm  -66.79 -48.574 7.98648
LeftForeArm  -14.9807 -38.0415 -9.6107
LeftHand  0.581728 -3.0243 -7.80254
RightShoulder  1.55508 5.96402 9.51381
RightArm  -40.6613 49.3584 47.6637
RightForeArm  12.5746 60.4171 19.0942
RightHand  -0.0476802 -5.02548 -9.00105
LeftUpLeg  -21.1652 16.5799 -0.896169
LeftLeg  21.9911 17.5653 7.9578
LeftFoot  1.12031 0.859386 -7.92612
LeftToes  9.43379e-011 5.24309e-011 -4.66411e-011
